<svg width="33" height="39" viewBox="0 0 33 39" fill="none" xmlns="http://www.w3.org/2000/svg">
<path opacity="0.4" d="M18.5152 33.6497C17.6403 33.4628 12.3095 33.4628 11.4346 33.6497C10.6868 33.8224 9.87799 34.2242 9.87799 35.1055C9.92148 35.9462 10.4137 36.6882 11.0955 37.1588L11.0937 37.1605C11.9756 37.8479 13.0104 38.2849 14.094 38.4419C14.6715 38.5212 15.2593 38.5177 15.8576 38.4419C16.9395 38.2849 17.9742 37.8479 18.8561 37.1605L18.8543 37.1588C19.5361 36.6882 20.0284 35.9462 20.0718 35.1055C20.0718 34.2242 19.2631 33.8224 18.5152 33.6497Z" fill="#AEAEAE"/>
<path d="M28.5966 20.3793C27.3183 18.8865 26.7374 17.5929 26.7374 15.395V14.6477C26.7374 11.7837 26.0782 9.93837 24.6451 8.09303C22.4363 5.22723 18.7177 3.5 15.0774 3.5H14.9227C11.3589 3.5 7.75686 5.14792 5.50975 7.8974C3.99833 9.77974 3.26263 11.7044 3.26263 14.6477V15.395C3.26263 17.5929 2.71997 18.8865 1.40336 20.3793C0.434593 21.4791 0.125 22.8926 0.125 24.4225C0.125 25.9541 0.627652 27.4046 1.63642 28.5838C2.95304 29.9973 4.81231 30.8996 6.71156 31.0565C9.46134 31.3701 12.211 31.4883 15.0009 31.4883C17.789 31.4883 20.5388 31.2909 23.2901 31.0565C25.1876 30.8996 27.047 29.9973 28.3635 28.5838C29.3707 27.4046 29.875 25.9541 29.875 24.4225C29.875 22.8926 29.5654 21.4791 28.5966 20.3793Z" fill="#99BAED"/>
<circle cx="23.5686" cy="7.55395" r="7.95443" transform="rotate(-0.887255 23.5686 7.55395)" fill="#FF5050" stroke="white"/>
<path d="M23.3749 5.24208C22.6683 5.25303 22.0278 5.4363 21.4532 5.79191L21.6993 6.82822C22.2873 6.47907 22.8079 6.30099 23.2612 6.29397C23.5945 6.28881 23.8588 6.35139 24.0542 6.48171C24.2561 6.60527 24.359 6.79036 24.3628 7.037C24.3658 7.23031 24.289 7.43819 24.1325 7.66064C23.9759 7.88309 23.7266 8.14365 23.3845 8.44232L21.3913 10.1934L21.4048 11.0633L25.8243 10.9948L25.689 10.0068L23.1593 10.046L24.0969 9.24138C24.6035 8.80015 24.9577 8.42129 25.1595 8.10479C25.3612 7.7883 25.4587 7.41008 25.4519 6.97013C25.4468 6.63684 25.3588 6.33816 25.188 6.07411C25.0172 5.81005 24.7773 5.60374 24.4683 5.45518C24.1593 5.30661 23.7949 5.23558 23.3749 5.24208Z" fill="white"/>
</svg>
